<?xml version="1.0" encoding="UTF-8"?>
<svg id="Layer_1" data-name="Layer 1" xmlns="http://www.w3.org/2000/svg" xmlns:xlink="http://www.w3.org/1999/xlink" viewBox="0 0 1200 1200">
  <defs>
    <style>
      .cls-1 {
        fill: #7a4186;
      }

      .cls-2 {
        fill: url(#linear-gradient-8);
      }

      .cls-3 {
        fill: url(#linear-gradient-7);
      }

      .cls-4 {
        fill: url(#linear-gradient-5);
      }

      .cls-5 {
        fill: url(#linear-gradient-6);
      }

      .cls-6 {
        fill: url(#linear-gradient-9);
      }

      .cls-7 {
        fill: url(#linear-gradient-4);
      }

      .cls-8 {
        fill: url(#linear-gradient-3);
      }

      .cls-9 {
        fill: url(#linear-gradient-2);
      }

      .cls-10 {
        fill: url(#linear-gradient);
      }

      .cls-11 {
        fill: #f38020;
      }
    </style>
    <linearGradient id="linear-gradient" x1="129.05" y1="747.21" x2="129.05" y2="668.86" gradientUnits="userSpaceOnUse">
      <stop offset=".45" stop-color="#7e3e94"/>
      <stop offset=".9" stop-color="#a3549b"/>
    </linearGradient>
    <linearGradient id="linear-gradient-2" x1="84.06" y1="647.67" x2="84.06" y2="696.87" gradientUnits="userSpaceOnUse">
      <stop offset=".39" stop-color="#7e3e94"/>
      <stop offset="1" stop-color="#a3549b"/>
    </linearGradient>
    <linearGradient id="linear-gradient-3" x1="176.79" y1="647.67" x2="176.79" y2="696.87" xlink:href="#linear-gradient-2"/>
    <linearGradient id="linear-gradient-4" x1="47.19" y1="607.09" x2="173.51" y2="607.09" gradientUnits="userSpaceOnUse">
      <stop offset=".39" stop-color="#e45125"/>
      <stop offset=".96" stop-color="#facf0d"/>
    </linearGradient>
    <linearGradient id="linear-gradient-5" x1="149.67" y1="543.23" x2="17.53" y2="674.98" gradientUnits="userSpaceOnUse">
      <stop offset=".33" stop-color="#e45125"/>
      <stop offset=".86" stop-color="#facf0d"/>
    </linearGradient>
    <linearGradient id="linear-gradient-6" x1="213.24" y1="695.34" x2="133.72" y2="611.82" gradientUnits="userSpaceOnUse">
      <stop offset=".29" stop-color="#e45125"/>
      <stop offset=".82" stop-color="#facf0d"/>
    </linearGradient>
    <linearGradient id="linear-gradient-7" x1="148.59" y1="622.32" x2="218.07" y2="687.81" xlink:href="#linear-gradient-5"/>
    <linearGradient id="linear-gradient-8" x1="89.02" y1="541.22" x2="169.48" y2="448.58" gradientUnits="userSpaceOnUse">
      <stop offset=".33" stop-color="#e45125"/>
      <stop offset=".77" stop-color="#facf0d"/>
    </linearGradient>
    <linearGradient id="linear-gradient-9" x1="142.17" y1="464.74" x2="54.72" y2="576.55" gradientUnits="userSpaceOnUse">
      <stop offset=".33" stop-color="#e45125"/>
      <stop offset=".94" stop-color="#facf0d"/>
    </linearGradient>
  </defs>
  <g>
    <path class="cls-10" d="M171.6,646.58c-.65,3.88-2.89,8.01-7.76,12.15l-36.49,34.51s-19.52-14.5-32.56-30.25c-2.3-2.77-6.74-9.97-8.14-18.21-3.11,10.15-9.77,42.92,14.52,87.86,13.35,10.99,23.89,19.42,23.89,19.42l37.9-34.99c16.27-37.86,11.9-61.13,8.63-70.5Z"/>
    <path class="cls-9" d="M86.65,644.79c-1.09-6.41-.34-13.44,4.68-19.5.11-.14.29-.33.52-.57-3.14,3.04-7.05,7-9.75,10.27-12.19,14.83-28.09,43.33,2.59,83.57.27.35.53.7.78,1.04,5.36,4.5,10.72,8.95,15.7,13.05-24.3-44.94-17.63-77.71-14.52-87.86Z"/>
    <path class="cls-8" d="M190.13,662.47c-2.39-16.12-25.78-34.58-25.78-34.58h0c3.39,4.09,8.55,10.91,7.25,18.7,3.27,9.37,7.64,32.64-8.63,70.5l7.16-6.61c19.97-24.35,21.7-36.56,20-48.01Z"/>
    <path class="cls-7" d="M167.09,494.57s-.6,28.7-58.23,84.35c-46.07,44.49-66.72,58.54-60.62,106.75,1.31,1.6,2.43,2.83,3.21,3.63,6.88,7.09,20.42,18.86,34.03,30.3-.26-.34-.52-.69-.78-1.04-30.67-40.24-14.78-68.74-2.59-83.57,2.7-3.28,6.61-7.23,9.75-10.27.85-.86,2.45-2.37,4.51-4.27.39-.36.61-.56.61-.56h0c10.08-9.22,29.78-26.53,29.78-26.53h0c6.25-5.63,11.96-10.78,13.71-12.32,2.58-2.28,7.47-6.87,11.97-11.81h0c36.34-39.26,14.65-74.67,14.65-74.67Z"/>
    <path class="cls-4" d="M108.86,578.92c57.63-55.65,58.23-84.35,58.23-84.35l-62.51,57.13-36.48,32.62c-9.49,8.13-18.79,17.12-23.7,23.97-25.02,34.87-5.59,65.89,3.85,77.39-6.09-48.22,14.56-62.27,60.62-106.75Z"/>
    <path class="cls-5" d="M205,643.68c-4.28-17.36-34.57-43.86-44.71-52.33-5.15,13.92-4.12,28.35,2.11,34.89.81.85,1.61,1.43,1.94,1.65.23.14.2.13,0,0,0,0,0,0,0,0,0,0,23.39,18.46,25.78,34.58,1.58,10.64.18,21.95-16.07,43.06,20.36-25.46,36.52-39.24,30.95-61.85Z"/>
    <path class="cls-3" d="M201.6,604.85l-3.11-2.79h0s0,0,0,0l-29.19-26.38c-3.99,4.81-6.97,10.2-9,15.67,10.13,8.47,40.43,34.96,44.71,52.33,5.57,22.62-10.59,36.39-30.95,61.85-.9,1.17-1.84,2.36-2.83,3.59-.06.07-.11.15-.17.22-.24.31-.47.62-.7.93l36.05-33.28c33.8-30.81,4.97-62.78-4.8-72.14Z"/>
    <path class="cls-2" d="M150.29,447.93s.86,16.46-27.02,49.24c-27.89,32.78-51.73,48.54-51.52,83.17l-.38-.1c.06.33.12.66.18.99,0,0,3.52-20.53,34.59-45.69,30.4-24.6,51.46-36.44,44.15-87.61Z"/>
    <path class="cls-6" d="M123.27,497.17c27.89-32.78,27.02-49.24,27.02-49.24,0,0-5.47,16.79-32.27,36.78-26.08,19.44-57.53,36.95-46.66,95.53l.38.1c-.2-34.63,23.63-50.39,51.52-83.17Z"/>
  </g>
  <path class="cls-11" d="M273.23,543.18h85.62v25.76h-52.2v24.67h48.95v25.58h-48.95v48.25h-33.42v-124.26Z"/>
  <path class="cls-11" d="M399.33,642.22l-6.32,25.21h-33.42l34.68-124.26h45.7l36.31,124.26h-35.4l-6.86-25.21h-34.68ZM428.23,615.56c-4.88-18.68-9.21-36.64-11.74-49.34h-.54c-2.53,13.6-6.68,31.74-11.38,49.34h23.66Z"/>
  <path class="cls-11" d="M521.86,543.18v124.26h-34.14v-124.26h34.14Z"/>
  <path class="cls-11" d="M927.88,642.22l-6.32,25.21h-33.42l34.68-124.26h45.7l36.31,124.26h-35.4l-6.86-25.21h-34.68ZM956.78,615.56c-4.88-18.68-9.21-36.64-11.74-49.34h-.54c-2.53,13.6-6.68,31.74-11.38,49.34h23.66Z"/>
  <path class="cls-11" d="M1050.12,543.18v124.26h-34.14v-124.26h34.14Z"/>
  <path class="cls-11" d="M1063.48,667.44v-124.26h41.36c26.19,62.95,31.43,77.28,33.06,82.54h.54c-1.27-14.51-1.63-35.92-1.63-55.15v-27.39h31.07v124.26h-39.74c-28.54-70.38-32.69-81.45-34.32-86.16h-.36c1.08,15.6,1.26,36.82,1.26,58.41v27.75h-31.25Z"/>
  <g>
    <path class="cls-1" d="M305.42,681.43l-15.27,20.26-1.31,14.79h-5.79l1.31-14.79-11.41-20.26h6.89l8.12,15.21,10.77-15.21h6.68Z"/>
    <path class="cls-1" d="M308.1,685.69c3.38-3.26,7.63-4.89,12.75-4.89s9.03,1.65,11.82,4.95c2.76,3.3,3.89,7.7,3.41,13.21-.49,5.54-2.41,9.95-5.75,13.21-3.34,3.26-7.61,4.89-12.8,4.89s-9.06-1.65-11.82-4.95c-2.76-3.3-3.89-7.74-3.4-13.31.48-5.44,2.41-9.81,5.79-13.1ZM310.38,708.58c1.72,2.39,4.28,3.58,7.68,3.58s6.09-1.19,8.26-3.58c2.17-2.35,3.44-5.53,3.79-9.53.78-8.84-2.47-13.26-9.77-13.26-3.4,0-6.17,1.16-8.31,3.47-2.14,2.32-3.38,5.53-3.75,9.63-.36,4.1.33,7.33,2.09,9.68Z"/>
    <path class="cls-1" d="M347.89,681.43l-1.74,19.63c-.33,3.72-.19,6.28.42,7.68,1.03,2.21,3.27,3.31,6.7,3.31s5.92-1.05,7.23-3.16c.91-1.54,1.52-4.09,1.83-7.63l1.76-19.84h5.79l-1.72,19.37c-.44,4.91-1.37,8.51-2.8,10.79-.98,1.54-2.33,2.79-4.07,3.74-2.24,1.16-5.05,1.74-8.42,1.74-6.03,0-9.93-1.82-11.67-5.47-1.01-2.1-1.29-5.65-.85-10.63l1.73-19.52h5.79Z"/>
    <path class="cls-1" d="M377.3,681.43h15.26c4.17,0,7.04.49,8.61,1.47,2.76,1.68,3.97,4.42,3.64,8.21-.49,5.51-3.97,8.72-10.43,9.63,2.37,1.33,4.56,3.82,6.55,7.47l4.53,8.26h-7.05l-4.23-7.42c-1.33-2.39-2.36-4.05-3.08-5-.66-.88-1.37-1.53-2.14-1.95-.83-.49-2.2-.74-4.09-.74h-3.47l-1.34,15.1h-5.84l3.11-35.05ZM389.54,696.59c3.09,0,5.29-.33,6.61-1,1.61-.81,2.51-2.21,2.69-4.21.3-3.4-2.25-5.1-7.65-5.1h-8.52l-.92,10.31h7.79Z"/>
    <path class="cls-11" d="M429.25,693.85h-5.58l.38-4.32c.39-4.42,2.28-7.28,5.66-8.58l.97,2.16c-2.15.88-3.35,2.53-3.6,4.95h2.68l-.51,5.79Z"/>
    <path class="cls-11" d="M441.23,685.69c3.38-3.26,7.63-4.89,12.75-4.89s9.03,1.65,11.82,4.95c2.76,3.3,3.89,7.7,3.41,13.21-.49,5.54-2.41,9.95-5.75,13.21-3.34,3.26-7.61,4.89-12.8,4.89s-9.06-1.65-11.82-4.95c-2.76-3.3-3.89-7.74-3.4-13.31.48-5.44,2.41-9.81,5.79-13.1ZM443.52,708.58c1.72,2.39,4.28,3.58,7.68,3.58s6.09-1.19,8.26-3.58c2.17-2.35,3.44-5.53,3.79-9.53.78-8.84-2.47-13.26-9.77-13.26-3.4,0-6.17,1.16-8.31,3.47-2.14,2.32-3.38,5.53-3.75,9.63-.36,4.1.33,7.33,2.09,9.68Z"/>
    <path class="cls-11" d="M475.24,681.43h5.74l13.42,24.26,1.07,2.16.03-.32c-.03-1.3.02-2.6.13-3.89l1.86-22.21h5.47l-3.11,35.05h-5.84l-14.36-25.58c-.06-.18-.11-.31-.17-.42l-.02,2.58-1.92,23.42h-5.42l3.11-35.05Z"/>
    <path class="cls-11" d="M510.44,681.43h25.68l-.44,4.95h-19.84l-.83,9.31h18.52l-.44,4.95h-18.52l-.96,10.84h20.63l-.44,5h-26.47l3.11-35.05Z"/>
    <path class="cls-11" d="M558.85,704.64c.19,4.98,2.97,7.47,8.34,7.47s8.06-1.82,8.38-5.47c.12-1.37-.28-2.4-1.2-3.1-.91-.77-3.21-1.61-6.88-2.53-4.46-1.16-7.47-2.39-9.04-3.68-1.98-1.75-2.85-4.02-2.61-6.79.26-2.91,1.61-5.26,4.05-7.05,2.44-1.79,5.54-2.68,9.29-2.68,8.63,0,12.77,3.52,12.43,10.58l-5.71.32c-.14-3.96-2.47-5.95-7-5.95s-7.24,1.47-7.5,4.42c-.11,1.26.36,2.25,1.42,2.95,1.09.74,3.19,1.46,6.28,2.16,4.61,1.09,7.74,2.33,9.4,3.74,2.16,1.75,3.1,4.17,2.83,7.26-.3,3.33-1.76,5.96-4.38,7.89-2.63,1.93-6.06,2.9-10.31,2.9-9.09,0-13.56-3.96-13.42-11.89l5.62-.53Z"/>
    <path class="cls-11" d="M597.31,686.38h-11l.44-4.95h27.84l-.44,4.95h-11l-2.67,30.1h-5.84l2.67-30.1Z"/>
    <path class="cls-11" d="M619.89,685.69c3.38-3.26,7.63-4.89,12.75-4.89s9.03,1.65,11.82,4.95c2.76,3.3,3.89,7.7,3.41,13.21-.49,5.54-2.41,9.95-5.75,13.21-3.34,3.26-7.61,4.89-12.8,4.89s-9.06-1.65-11.82-4.95c-2.76-3.3-3.89-7.74-3.4-13.31.48-5.44,2.41-9.81,5.79-13.1ZM622.17,708.58c1.72,2.39,4.28,3.58,7.68,3.58s6.09-1.19,8.26-3.58c2.17-2.35,3.44-5.53,3.79-9.53.78-8.84-2.47-13.26-9.77-13.26-3.4,0-6.17,1.16-8.31,3.47-2.14,2.32-3.38,5.53-3.75,9.63-.36,4.1.33,7.33,2.09,9.68Z"/>
    <path class="cls-11" d="M653.89,681.43h12.37c4.77,0,7.99.49,9.66,1.47,2.96,1.82,4.25,4.82,3.88,9-.48,5.47-3.21,8.86-8.16,10.16-1.72.46-4.03.68-6.9.68h-6.89l-1.22,13.74h-5.84l3.11-35.05ZM664.86,697.74c2.74,0,4.73-.35,5.99-1.05,1.77-.91,2.75-2.47,2.94-4.68.21-2.35-.51-3.93-2.16-4.74-1.1-.6-3.11-.89-6.02-.89h-6.37l-1.01,11.37h6.63Z"/>
    <path class="cls-11" d="M686.98,680.96h5.63l-.38,4.31c-.39,4.39-2.28,7.26-5.66,8.63l-.96-2.21c2.15-.88,3.35-2.53,3.6-4.95h-2.74l.51-5.79Z"/>
    <path class="cls-1" d="M734.74,692.43c-.91-4.42-3.55-6.63-7.94-6.63-6.84,0-10.65,4.33-11.42,13-.79,8.91,2.16,13.37,8.87,13.37,4.84,0,8.12-2.75,9.84-8.26l5.54,1.68c-2.78,7.65-7.98,11.47-15.6,11.47-5.02,0-8.84-1.61-11.46-4.84-2.59-3.26-3.63-7.7-3.13-13.31.49-5.54,2.37-9.95,5.64-13.21,3.24-3.26,7.38-4.89,12.43-4.89,5.72,0,9.67,2.16,11.84,6.47.45.88.84,2.14,1.19,3.79l-5.8,1.37Z"/>
    <path class="cls-1" d="M746.19,681.43h15.26c4.17,0,7.04.49,8.61,1.47,2.76,1.68,3.97,4.42,3.64,8.21-.49,5.51-3.97,8.72-10.43,9.63,2.37,1.33,4.56,3.82,6.55,7.47l4.53,8.26h-7.05l-4.23-7.42c-1.33-2.39-2.36-4.05-3.08-5-.66-.88-1.37-1.53-2.14-1.95-.83-.49-2.2-.74-4.09-.74h-3.47l-1.34,15.1h-5.84l3.11-35.05ZM758.43,696.59c3.09,0,5.29-.33,6.61-1,1.61-.81,2.51-2.21,2.69-4.21.3-3.4-2.25-5.1-7.65-5.1h-8.52l-.92,10.31h7.79Z"/>
    <path class="cls-1" d="M781.4,681.43h25.68l-.44,4.95h-19.84l-.83,9.31h18.52l-.44,4.95h-18.52l-.96,10.84h20.63l-.44,5h-26.47l3.11-35.05Z"/>
    <path class="cls-1" d="M810.91,716.48l16.69-35.05h6.16l11.1,35.05h-6.42l-2.75-9.37h-14.31l-4.3,9.37h-6.16ZM834.27,702.32l-2.5-8.63c-.85-3.12-1.41-5.28-1.69-6.47-.79,2.18-1.6,4.14-2.42,5.89l-4.19,9.21h10.79Z"/>
    <path class="cls-1" d="M855.32,686.38h-11l.44-4.95h27.84l-.44,4.95h-11l-2.67,30.1h-5.84l2.67-30.1Z"/>
    <path class="cls-1" d="M874.86,681.43h5.79l-3.11,35.05h-5.79l3.11-35.05Z"/>
    <path class="cls-1" d="M920.9,681.43l-16.27,35.05h-6.05l-9.99-35.05h6.26l6.72,25.68c.34,1.3.56,2.32.68,3.05l1.27-3.05,11.38-25.68h6Z"/>
    <path class="cls-1" d="M921.22,681.43h25.68l-.44,4.95h-19.84l-.83,9.31h18.52l-.44,4.95h-18.52l-.96,10.84h20.63l-.44,5h-26.47l3.11-35.05Z"/>
    <path class="cls-1" d="M969.62,704.64c.19,4.98,2.97,7.47,8.34,7.47s8.06-1.82,8.38-5.47c.12-1.37-.28-2.4-1.2-3.1-.91-.77-3.21-1.61-6.88-2.53-4.46-1.16-7.47-2.39-9.04-3.68-1.98-1.75-2.85-4.02-2.61-6.79.26-2.91,1.61-5.26,4.05-7.05,2.44-1.79,5.54-2.68,9.29-2.68,8.63,0,12.77,3.52,12.43,10.58l-5.71.32c-.14-3.96-2.47-5.95-7-5.95s-7.24,1.47-7.5,4.42c-.11,1.26.36,2.25,1.42,2.95,1.09.74,3.19,1.46,6.28,2.16,4.61,1.09,7.74,2.33,9.4,3.74,2.16,1.75,3.1,4.17,2.83,7.26-.3,3.33-1.76,5.96-4.38,7.89-2.63,1.93-6.06,2.9-10.31,2.9-9.09,0-13.56-3.96-13.42-11.89l5.62-.53Z"/>
    <path class="cls-1" d="M1002.98,685.69c3.38-3.26,7.63-4.89,12.75-4.89s9.03,1.65,11.82,4.95c2.76,3.3,3.89,7.7,3.41,13.21-.49,5.54-2.41,9.95-5.75,13.21-3.34,3.26-7.61,4.89-12.8,4.89s-9.06-1.65-11.82-4.95c-2.76-3.3-3.89-7.74-3.4-13.31.48-5.44,2.41-9.81,5.79-13.1ZM1005.27,708.58c1.72,2.39,4.28,3.58,7.68,3.58s6.09-1.19,8.26-3.58c2.17-2.35,3.44-5.53,3.79-9.53.78-8.84-2.47-13.26-9.77-13.26-3.4,0-6.17,1.16-8.31,3.47-2.14,2.32-3.38,5.53-3.75,9.63-.36,4.1.33,7.33,2.09,9.68Z"/>
    <path class="cls-1" d="M1042.78,681.43l-1.74,19.63c-.33,3.72-.19,6.28.42,7.68,1.03,2.21,3.27,3.31,6.7,3.31s5.92-1.05,7.23-3.16c.91-1.54,1.52-4.09,1.83-7.63l1.76-19.84h5.79l-1.72,19.37c-.44,4.91-1.37,8.51-2.8,10.79-.98,1.54-2.33,2.79-4.07,3.74-2.24,1.16-5.05,1.74-8.42,1.74-6.03,0-9.93-1.82-11.67-5.47-1.01-2.1-1.29-5.65-.85-10.63l1.73-19.52h5.79Z"/>
    <path class="cls-1" d="M1072.19,681.43h15.26c4.17,0,7.04.49,8.6,1.47,2.76,1.68,3.98,4.42,3.64,8.21-.49,5.51-3.97,8.72-10.43,9.63,2.37,1.33,4.56,3.82,6.55,7.47l4.53,8.26h-7.05l-4.23-7.42c-1.33-2.39-2.36-4.05-3.08-5-.66-.88-1.37-1.53-2.14-1.95-.83-.49-2.2-.74-4.09-.74h-3.47l-1.34,15.1h-5.84l3.11-35.05ZM1084.43,696.59c3.09,0,5.29-.33,6.61-1,1.61-.81,2.51-2.21,2.69-4.21.3-3.4-2.25-5.1-7.65-5.1h-8.52l-.92,10.31h7.79Z"/>
    <path class="cls-1" d="M1130.1,692.43c-.91-4.42-3.55-6.63-7.94-6.63-6.84,0-10.65,4.33-11.42,13-.79,8.91,2.16,13.37,8.87,13.37,4.84,0,8.12-2.75,9.84-8.26l5.54,1.68c-2.78,7.65-7.98,11.47-15.6,11.47-5.02,0-8.84-1.61-11.46-4.84-2.59-3.26-3.63-7.7-3.13-13.31.49-5.54,2.37-9.95,5.64-13.21,3.24-3.26,7.38-4.89,12.43-4.89,5.72,0,9.67,2.16,11.84,6.47.45.88.84,2.14,1.19,3.79l-5.8,1.37Z"/>
    <path class="cls-1" d="M1141.55,681.43h25.68l-.44,4.95h-19.84l-.83,9.31h18.52l-.44,4.95h-18.52l-.96,10.84h20.63l-.44,5h-26.47l3.11-35.05Z"/>
  </g>
  <path class="cls-11" d="M747.01,600.32c8.31-3.26,16.26-10.7,16.26-25.21,0-16.33-11.02-31.93-40.82-31.93h-54.91v124.26h54.19c28.9,0,45.52-14.87,45.52-37.73,0-16.87-10.66-25.76-20.23-29.39ZM725.31,641.97h-25.49v-25.8h25.52s10.26,12.9,10.26,12.9l-10.3,12.9ZM725.31,591.54h-25.49v-25.8h25.52s10.26,12.9,10.26,12.9l-10.3,12.9Z"/>
  <path class="cls-11" d="M634.35,636.24c0-14.15-3.79-24.67-16.62-29.75,10.66-4.17,18.97-12.52,18.97-29.21,0-19.77-14.81-34.1-41.91-34.1h-56.35v124.26h33.05v-47.71h11.92c13,0,17.34,3.81,17.34,16.87v3.45c0,14.33.54,22.31,2.35,27.39h32.69c-.9-5.99-1.45-16.87-1.45-27.21v-3.99ZM596.65,594.36h-25.49v-25.8h25.52s10.26,12.9,10.26,12.9l-10.3,12.9Z"/>
  <path class="cls-11" d="M874.24,636.24c0-14.15-3.79-24.67-16.62-29.75,10.66-4.17,18.97-12.52,18.97-29.21,0-19.77-14.81-34.1-41.91-34.1h-56.35v124.26h33.05v-47.71h11.92c13,0,17.34,3.81,17.34,16.87v3.45c0,14.33.54,22.31,2.35,27.39h32.69c-.9-5.99-1.45-16.87-1.45-27.21v-3.99ZM835.85,594.36h-25.49v-25.8h25.52s10.26,12.9,10.26,12.9l-10.3,12.9Z"/>
</svg>